.
 
http://www.scenetime.com    -  Hottest private tracker on the net. !!!

New release on http://www.scenetime.com

        Seed back for speed


...................................NFO:.................................................                                                                
 @@@@@@@   @@@  @@@  @@@  @@@@@@@@  @@@@@@@   @@@@@@    @@@  @@@@@@@  @@@ @@@ 
 @@@@@@@@  @@@  @@@  @@@  @@@@@@@@  @@@@@@@@  @@@@@@@   @@@  @@@@@@@  @@@ @@@ 
 @@!  @@@  @@!  @@!  @@@  @@!       @@!  @@@  !@@       @@!    @@!    @@! !@@ 
 !@!  @!@  !@!  !@!  @!@  !@!       !@!  @!@  !@!       !@!    !@!    !@! @!! 
 @!@  !@!  !!@  @!@  !@!  @!!!:!    @!@!!@!   !!@@!!    !!@    @!!     !@!@!  
 !@!  !!!  !!!  !@!  !!!  !!!!!:    !!@!@!     !!@!!!   !!!    !!!      @!!!  
 !!:  !!!  !!:  :!:  !!:  !!:       !!: :!!        !:!  !!:    !!:      !!:   
 :!:  !:!  :!:   ::!!:!   :!:       :!:  !:!      !:!   :!:    :!:      :!:   
 :::: ::   ::    ::::     :: ::::   ::   :::  :::: ::    ::     ::       ::   
 :: :  :   :       :      : :: ::    :   : :  :: : :    :       :        :       


General
Complete name                    : Surviving D-Day 2011 DiVERSiTY.avi
Format                           : AVI
Format/Info                      : Audio Video Interleave
File size                        : 1.35 GiB
Duration                         : 1h 27mn
Overall bit rate                 : 2 206 Kbps
Encoder                          : usagi
Source                           : retail thnx derensjes
IMDb                             : http://www.imdb.com/title/tt1982846/

Video
ID                               : 0
Format                           : MPEG-4 Visual
Format profile                   : Advanced Simple@L5
Format settings, BVOP            : 2
Format settings, QPel            : No
Format settings, GMC             : No warppoints
Format settings, Matrix          : Default (H.263)
Codec ID                         : XVID
Codec ID/Hint                    : XviD
Duration                         : 1h 27mn
Bit rate                         : 1 750 Kbps
Width                            : 720 pixels
Height                           : 400 pixels
Display aspect ratio             : 16:9
Frame rate                       : 25.000 fps
Color space                      : YUV
Chroma subsampling               : 4:2:0
Bit depth                        : 8 bits
Scan type                        : Progressive
Compression mode                 : Lossy
Bits/(Pixel*Frame)               : 0.243
Stream size                      : 1.07 GiB (79%)
Writing library                  : XviD 1.2.1 (UTC 2008-12-04)

Audio
ID                               : 1
Format                           : AC-3
Format/Info                      : Audio Coding 3
Mode extension                   : CM (complete main)
Codec ID                         : 2000
Duration                         : 1h 27mn
Bit rate mode                    : Constant
Bit rate                         : 448 Kbps
Channel(s)                       : 6 channels
Channel positions                : Front: L C R, Side: L R, LFE
Sampling rate                    : 48.0 KHz
Bit depth                        : 16 bits
Compression mode                 : Lossy
Stream size                      : 280 MiB (20%)
Alignment                        : Aligned on interleaves
Interleave, duration             : 64 ms (1.60 video frames)
Interleave, preload duration     : 192 ms
Title                            : VTS_01_1 T80 3_2ch 448Kbps DELAY 0ms_new


Plot
On June 6th 1944, as the Nazis occupied Europe, the Allies launched their biggest attack ever, with 34,000 American soldiers embarking on a fateful mission to free Western Europe. On Saturday, June 4 from 9-11PM ET/PT, Discovery Channel premieres SURVIVING D-DAY, the epic story of the brave but often unorthodox tactics deployed during the twelve-hour battle for Omaha Beach. 

Arguably one of the biggest turning points in modern history, the battle for Omaha Beach is also one of the most unconventional and strange battles in history. Military strategy was informed by stage magicians, and conventional weapons were used alongside outlandish inventions like floating tanks and exploding dummy paratroopers. Spies sent secret messages by pigeons, and the French resistance hid codes and maps in watercolors of landscapes. 

By forensically analyzing war records and real testimony, SURVIVING D-DAY reveals that the difference between life and death for American soldiers hung on such details as what they ate for breakfast, the interpretation of a weather forecast, or the design of a buckle strap. Yet despite ingenious and creative tactical devices and strategies, the most powerful weapons of warfare were still leadership and bravery. The special tells these incredible stories -- 
many told by Omaha Beach veterans themselves -- to examine this historic day and reveal who survived... and why. 


Cast
Michael Ashcroft	 ...	Himself - Historian (as Lord Ashcroft)
Hal Baumgarten	 ...	Himself - 116th Regiment (voice)
William Bodette	 ...	Himself (as First Sgt. William Bodette)
Robert Sales	 ...	Himself - 116th Regiment (voice) (as Bob Sales)
Charlie Adcock	 ...	Himself - Explosives Engineer
Richard Anderson	 ...	Himself - Military Analyst
Jasper Maskelyne	 ...	Himself
Paul Zenon	 ...	Himself - Magician



LOOKING FOR : Untouched DVD-R's, DVD Screeners, Early Releases DVD's, CAM's, 
and good quality LINE audio. 
Contact DiVERSiTY and let us know.  
diversity at hushmail dot com   



Greets
To Everyone who makes p2p possible...... Thanks.